<svg width="122" height="116" viewBox="0 0 122 116" fill="none" xmlns="http://www.w3.org/2000/svg">
<path d="M31.647 23.253C29.6619 21.3655 26.4433 21.3655 24.4581 23.253C22.4729 25.1406 22.4729 28.2009 24.4581 30.0884L53.8131 57.9996L24.4584 85.9106C22.4732 87.798 22.4732 90.8585 24.4584 92.7459C26.4436 94.6334 29.6622 94.6334 31.6473 92.7459L61.002 64.8349L90.3567 92.7459C92.3417 94.6334 95.5605 94.6334 97.5455 92.7459C99.5306 90.8585 99.5306 87.798 97.5455 85.9106L68.1908 57.9996L97.5455 30.0884C99.5311 28.2009 99.5311 25.1406 97.5455 23.253C95.5605 21.3655 92.3422 21.3655 90.3567 23.253L61.002 51.1643L31.647 23.253Z" fill="#FF7903"/>
</svg>
