<svg width="96" height="96" viewBox="0 0 96 96" fill="none" xmlns="http://www.w3.org/2000/svg">
<path fill-rule="evenodd" clip-rule="evenodd" d="M48 0C21.4841 0 0 21.4996 0 47.9913C0 73.1736 19.4279 93.8434 44.1065 95.8268V96H48C74.5159 96 96 74.5004 96 48.0087C96 21.519 74.5179 0 48 0ZM58.6064 86.8008C55.595 87.6221 52.4428 88.1023 49.1938 88.197H48C42.5822 88.197 37.4135 87.1239 32.695 85.1788C37.2636 68.7178 49.6483 56.927 63.8237 51.6585C66.27 63.5142 64.4942 76.219 58.6064 86.8008ZM61.6653 44.1601C45.4864 49.9874 31.3565 63.1135 25.6791 81.433C14.8935 74.2192 7.78699 61.9297 7.78699 47.9913C7.78699 43.0486 8.67976 38.3132 10.313 33.9381C15.1813 36.3637 20.3869 38.0796 25.7401 39.0337C32.5594 40.284 39.5463 40.2425 46.3458 39.0165C50.2161 38.3177 53.9945 37.2048 57.6174 35.7217C59.2301 38.4025 60.5864 41.2274 61.6653 44.1601ZM71.3293 49.5155C73.6671 60.307 72.9582 71.7429 69.227 82.1615C80.297 75.2679 87.7706 63.1444 88.1941 49.2556C82.691 48.2579 76.9549 48.3797 71.3293 49.5155ZM87.6529 41.2847C81.5587 40.4288 75.2917 40.707 69.1699 42.0146C67.9643 38.6321 66.4424 35.3737 64.6293 32.2796C69.6588 29.3748 74.252 25.7187 78.2004 21.4556C83.0293 26.9462 86.3859 33.7626 87.6529 41.2847ZM27.1159 31.3706C22.4654 30.5426 17.9484 29.05 13.7331 26.9434C17.3585 21.0565 22.4589 16.1736 28.5199 12.8109L28.5666 12.8255L28.5683 12.8261L28.5685 12.8262L28.5686 12.8262C29.2289 13.034 29.8593 13.2324 30.4663 13.4502C30.6903 13.5358 30.9096 13.6189 31.1239 13.7002L31.1273 13.7015L31.1275 13.7015L31.1276 13.7016C32.1119 14.0748 32.9908 14.408 33.7251 14.7484L33.9346 14.8532L33.9846 14.8764C34.4482 15.092 35.1163 15.4105 35.7184 15.6976C36.0384 15.8503 36.3399 15.994 36.5821 16.1086L36.5911 16.1135C36.7936 16.2223 36.9637 16.3136 37.1223 16.4081C37.2513 16.4918 37.3665 16.5596 37.4283 16.5958C37.5412 16.6619 37.6573 16.7273 37.753 16.7806C37.8348 16.826 37.915 16.8703 37.9752 16.9033L38.0055 16.9199L38.0695 16.9553L38.0776 16.96C38.1669 17.0114 38.2752 17.0732 38.3986 17.1437C38.6634 17.2948 38.998 17.4857 39.3655 17.7008C39.6246 17.8526 39.867 17.9974 40.0647 18.1199C40.2117 18.2112 40.2915 18.2642 40.3219 18.2844L40.3237 18.2855C40.3361 18.2939 40.3391 18.2958 40.3341 18.2919L40.5048 18.4213L40.6944 18.5339C40.9836 18.7056 41.2685 18.9028 41.6241 19.1488L41.6242 19.1489L41.6244 19.149L41.6259 19.15C41.7882 19.2623 41.9653 19.3849 42.1642 19.5199L42.2994 19.6115L42.4143 19.6763C42.4141 19.6765 42.4195 19.6802 42.431 19.6879C42.4619 19.7087 42.5369 19.7593 42.6676 19.8529C42.8688 19.9969 43.1116 20.1776 43.3789 20.3786L43.6954 20.6171C43.8582 20.74 44.0232 20.8645 44.1636 20.9695C44.349 21.1082 44.5758 21.2767 44.7805 21.4186C47.7684 23.7038 50.4997 26.3131 52.9311 29.1892C50.3442 30.1357 47.6778 30.8645 44.9629 31.3546C39.0448 32.4216 33 32.4504 27.1363 31.3743L27.1261 31.3723L27.1159 31.3706ZM48 7.78559C57.23 7.78559 65.7332 10.8987 72.5196 16.1303C68.9615 19.9798 64.7949 23.2582 60.2326 25.8238C57.096 21.8371 53.4671 18.2477 49.4212 15.1657L49.3234 15.0913L49.222 15.0236L49.1944 15.0044C49.1728 14.9892 49.144 14.9686 49.1071 14.9418C49.0324 14.8875 48.9399 14.819 48.8289 14.7359C48.703 14.6417 48.5767 14.5464 48.441 14.444L48.4407 14.4438L48.4129 14.4228C48.303 14.3398 48.1866 14.2519 48.0591 14.1561C47.7834 13.9488 47.481 13.7233 47.2032 13.5243C47.0091 13.3851 46.7301 13.1884 46.4451 13.0148L46.2643 12.8898L46.2633 12.8891L46.2632 12.8891C45.8926 12.6323 45.3365 12.2472 44.8306 11.9365C44.358 11.6052 43.7193 11.2277 43.3008 10.9827C42.8956 10.7454 42.4593 10.4964 42.1884 10.3418L42.1863 10.3406L41.9811 10.2233C41.9302 10.1936 41.8861 10.169 41.8689 10.1594L41.8665 10.1581L41.7613 10.0999L41.7258 10.0803C41.6653 10.047 41.6049 10.0138 41.542 9.97875C41.47 9.93872 41.4118 9.90569 41.3694 9.88097L41.3401 9.86049L41.2368 9.79736C40.8628 9.56885 40.4732 9.36018 40.2616 9.2469L40.2571 9.24447L40.1835 9.20501L40.093 9.15632L40.0002 9.11246C39.8144 9.02474 39.5397 8.89391 39.2279 8.74526C42.0514 8.11698 44.987 7.78559 48 7.78559Z" fill="white"/>
</svg>
