<svg width="96" height="96" viewBox="0 0 96 96" fill="none" xmlns="http://www.w3.org/2000/svg">
<g clip-path="url(#clip0_2012_358)">
<path d="M48 0C21.4906 0 0 21.4906 0 48C0 70.5101 15.4982 89.399 36.4051 94.5869V62.6688H26.5075V48H36.4051V41.6794C36.4051 25.3421 43.799 17.7696 59.8387 17.7696C62.88 17.7696 68.1274 18.3667 70.2739 18.9619V32.2579C69.1411 32.1389 67.1731 32.0794 64.729 32.0794C56.8589 32.0794 53.8176 35.0611 53.8176 42.8122V48H69.4963L66.8026 62.6688H53.8176V95.6486C77.5853 92.7782 96.0019 72.5414 96.0019 48C96 21.4906 74.5094 0 48 0Z" fill="white"/>
</g>
<defs>
<clipPath id="clip0_2012_358">
<rect width="96" height="96" fill="white"/>
</clipPath>
</defs>
</svg>
