<svg width="96" height="96" viewBox="0 0 96 96" fill="none" xmlns="http://www.w3.org/2000/svg">
<path fill-rule="evenodd" clip-rule="evenodd" d="M48.0397 0C21.475 0 0 21.6333 0 48.3967C0 69.79 13.7598 87.8991 32.8482 94.3084C35.2348 94.7903 36.1089 93.2671 36.1089 91.9858C36.1089 90.8638 36.0303 87.018 36.0303 83.0109C22.6668 85.896 19.884 77.2417 19.884 77.2417C17.7364 71.6328 14.5543 70.1912 14.5543 70.1912C10.1804 67.2265 14.8729 67.2265 14.8729 67.2265C19.7247 67.5471 22.2705 72.1943 22.2705 72.1943C26.5647 79.5653 33.4844 77.4826 36.2682 76.2004C36.6655 73.0754 37.9389 70.912 39.291 69.7104C28.6327 68.5884 17.4187 64.422 17.4187 45.8321C17.4187 40.5438 19.3264 36.2171 22.3492 32.8521C21.8723 31.6505 20.2016 26.6817 22.8271 20.0315C22.8271 20.0315 26.8833 18.7492 36.0293 24.9993C39.945 23.9399 43.9832 23.401 48.0397 23.3964C52.096 23.3964 56.2309 23.9579 60.0492 24.9993C69.1961 18.7492 73.2524 20.0315 73.2524 20.0315C75.8779 26.6817 74.2062 31.6505 73.7293 32.8521C76.8317 36.2171 78.6607 40.5438 78.6607 45.8321C78.6607 64.422 67.4468 68.5078 56.7088 69.7104C58.4591 71.2326 59.9695 74.1167 59.9695 78.6843C59.9695 85.1743 59.8908 90.383 59.8908 91.9848C59.8908 93.2671 60.766 94.7903 63.1516 94.3094C82.24 87.8981 95.9998 69.79 95.9998 48.3967C96.0785 21.6333 74.5248 0 48.0397 0Z" fill="white"/>
</svg>
