<svg width="96" height="96" viewBox="0 0 96 96" fill="none" xmlns="http://www.w3.org/2000/svg">
<g clip-path="url(#clip0_2012_364)">
<path d="M48 8.64375C60.825 8.64375 62.3438 8.7 67.3875 8.925C72.075 9.13125 74.6063 9.91875 76.2938 10.575C78.525 11.4375 80.1375 12.4875 81.8063 14.1562C83.4938 15.8438 84.525 17.4375 85.3875 19.6688C86.0438 21.3563 86.8313 23.9062 87.0375 28.575C87.2625 33.6375 87.3188 35.1563 87.3188 47.9625C87.3188 60.7875 87.2625 62.3063 87.0375 67.35C86.8313 72.0375 86.0438 74.5688 85.3875 76.2563C84.525 78.4875 83.475 80.1 81.8063 81.7688C80.1188 83.4563 78.525 84.4875 76.2938 85.35C74.6063 86.0063 72.0563 86.7937 67.3875 87C62.325 87.225 60.8063 87.2812 48 87.2812C35.175 87.2812 33.6563 87.225 28.6125 87C23.925 86.7937 21.3938 86.0063 19.7063 85.35C17.475 84.4875 15.8625 83.4375 14.1938 81.7688C12.5063 80.0813 11.475 78.4875 10.6125 76.2563C9.95625 74.5688 9.16875 72.0188 8.9625 67.35C8.7375 62.2875 8.68125 60.7688 8.68125 47.9625C8.68125 35.1375 8.7375 33.6187 8.9625 28.575C9.16875 23.8875 9.95625 21.3563 10.6125 19.6688C11.475 17.4375 12.525 15.825 14.1938 14.1562C15.8813 12.4688 17.475 11.4375 19.7063 10.575C21.3938 9.91875 23.9438 9.13125 28.6125 8.925C33.6563 8.7 35.175 8.64375 48 8.64375ZM48 0C34.9688 0 33.3375 0.05625 28.2188 0.28125C23.1188 0.50625 19.6125 1.33125 16.575 2.5125C13.4063 3.75 10.725 5.38125 8.0625 8.0625C5.38125 10.725 3.75 13.4063 2.5125 16.5563C1.33125 19.6125 0.50625 23.1 0.28125 28.2C0.05625 33.3375 0 34.9688 0 48C0 61.0312 0.05625 62.6625 0.28125 67.7812C0.50625 72.8813 1.33125 76.3875 2.5125 79.425C3.75 82.5938 5.38125 85.275 8.0625 87.9375C10.725 90.6 13.4063 92.25 16.5563 93.4688C19.6125 94.65 23.1 95.475 28.2 95.7C33.3188 95.925 34.95 95.9812 47.9813 95.9812C61.0125 95.9812 62.6438 95.925 67.7625 95.7C72.8625 95.475 76.3688 94.65 79.4063 93.4688C82.5563 92.25 85.2375 90.6 87.9 87.9375C90.5625 85.275 92.2125 82.5938 93.4313 79.4438C94.6125 76.3875 95.4375 72.9 95.6625 67.8C95.8875 62.6813 95.9438 61.05 95.9438 48.0188C95.9438 34.9875 95.8875 33.3563 95.6625 28.2375C95.4375 23.1375 94.6125 19.6313 93.4313 16.5938C92.25 13.4062 90.6188 10.725 87.9375 8.0625C85.275 5.4 82.5938 3.75 79.4438 2.53125C76.3875 1.35 72.9 0.525 67.8 0.3C62.6625 0.05625 61.0313 0 48 0Z" fill="white"/>
<path d="M48 23.3438C34.3875 23.3438 23.3438 34.3875 23.3438 48C23.3438 61.6125 34.3875 72.6562 48 72.6562C61.6125 72.6562 72.6562 61.6125 72.6562 48C72.6562 34.3875 61.6125 23.3438 48 23.3438ZM48 63.9937C39.1688 63.9937 32.0062 56.8312 32.0062 48C32.0062 39.1688 39.1688 32.0062 48 32.0062C56.8312 32.0062 63.9937 39.1688 63.9937 48C63.9937 56.8312 56.8312 63.9937 48 63.9937Z" fill="white"/>
<path d="M79.3875 22.3686C79.3875 25.5561 76.8 28.1248 73.6313 28.1248C70.4438 28.1248 67.875 25.5373 67.875 22.3686C67.875 19.1811 70.4625 16.6123 73.6313 16.6123C76.8 16.6123 79.3875 19.1998 79.3875 22.3686Z" fill="white"/>
</g>
<defs>
<clipPath id="clip0_2012_364">
<rect width="96" height="96" fill="white"/>
</clipPath>
</defs>
</svg>
