<svg width="96" height="96" viewBox="0 0 96 96" fill="none" xmlns="http://www.w3.org/2000/svg">
<g clip-path="url(#clip0_2012_369)">
<path d="M88.8938 0H7.0875C3.16875 0 0 3.09375 0 6.91875V89.0625C0 92.8875 3.16875 96 7.0875 96H88.8938C92.8125 96 96 92.8875 96 89.0813V6.91875C96 3.09375 92.8125 0 88.8938 0ZM28.4812 81.8062H14.2313V35.9812H28.4812V81.8062ZM21.3563 29.7375C16.7813 29.7375 13.0875 26.0437 13.0875 21.4875C13.0875 16.9312 16.7813 13.2375 21.3563 13.2375C25.9125 13.2375 29.6062 16.9312 29.6062 21.4875C29.6062 26.025 25.9125 29.7375 21.3563 29.7375ZM81.8062 81.8062H67.575V59.5312C67.575 54.225 67.4812 47.3812 60.1687 47.3812C52.7625 47.3812 51.6375 53.175 51.6375 59.1562V81.8062H37.425V35.9812H51.075V42.2438H51.2625C53.1562 38.6438 57.8063 34.8375 64.725 34.8375C79.1438 34.8375 81.8062 44.325 81.8062 56.6625V81.8062V81.8062Z" fill="white"/>
</g>
<defs>
<clipPath id="clip0_2012_369">
<rect width="96" height="96" fill="white"/>
</clipPath>
</defs>
</svg>
