<svg width="110" height="104" viewBox="0 0 110 104" fill="none" xmlns="http://www.w3.org/2000/svg">
<g clip-path="url(#clip0_2008_173)">
<path d="M107.533 82.1894L90.5456 66.1268C87.1624 62.941 81.5585 63.0385 78.0569 66.3491L69.4993 74.4399C68.959 74.1571 68.3992 73.8629 67.8106 73.5508C62.4065 70.7197 55.0092 66.8393 47.2247 59.4743C39.4186 52.0945 35.3089 45.0893 32.3063 39.9764C31.9876 39.4343 31.6846 38.9127 31.3854 38.4168L37.1294 32.9933L39.9528 30.3203C43.4604 27.0041 43.5576 21.7074 40.1803 18.5128L23.1926 2.44815C19.8176 -0.742811 14.2115 -0.645788 10.7039 2.67043L5.9161 7.22279L6.04804 7.346C4.44304 9.28234 3.10029 11.5164 2.10341 13.9251C1.18255 16.2177 0.609177 18.4061 0.346926 20.5975C-1.89551 38.1797 6.60186 54.2474 29.6637 76.0534C61.5416 106.19 87.2324 103.914 88.3401 103.802C90.7557 103.53 93.0677 102.985 95.4193 102.121C97.9451 101.188 100.306 99.922 102.352 98.4081L102.457 98.4944L107.307 94.0041C110.807 90.6884 110.908 85.3917 107.533 82.1894ZM103.534 90.4333L101.396 92.4507L100.545 93.2243C99.2042 94.4497 96.8836 96.1709 93.495 97.424C91.5713 98.1242 89.6747 98.5739 87.745 98.7911C87.5023 98.8131 63.3388 100.762 33.4329 72.4897C8.00488 48.4497 3.92994 34.597 5.6381 21.1802C5.85203 19.402 6.32386 17.6124 7.07804 15.7423C8.41482 12.52 10.2337 10.328 11.52 9.05852L14.4754 6.23666C15.8996 4.88655 18.1208 4.78337 19.4229 6.01438L36.41 22.075C37.7099 23.3075 37.6072 25.4076 36.1809 26.7618L24.7086 37.5975L25.7674 39.2823C26.356 40.2213 26.9782 41.2736 27.6428 42.4168C30.7985 47.7977 35.1161 55.1632 43.4544 63.0395C51.771 70.9066 59.55 74.9851 65.224 77.961C66.45 78.6022 67.5696 79.192 68.5741 79.7577L70.3599 80.7587L81.8245 69.9158C83.2547 68.5693 85.4836 68.4697 86.7856 69.6971L103.765 85.7541C105.063 86.9846 104.96 89.0847 103.534 90.4333Z" fill="#FF7903"/>
</g>
<defs>
<clipPath id="clip0_2008_173">
<rect width="110" height="104" fill="white"/>
</clipPath>
</defs>
</svg>
