<svg width="96" height="96" viewBox="0 0 96 96" fill="none" xmlns="http://www.w3.org/2000/svg">
<g clip-path="url(#clip0_2012_382)">
<path fill-rule="evenodd" clip-rule="evenodd" d="M96 48C96 74.5097 74.5097 96 48 96C21.4903 96 0 74.5097 0 48C0 21.4903 21.4903 0 48 0C74.5097 0 96 21.4903 96 48ZM49.7201 35.4357C45.0514 37.3776 35.7205 41.3968 21.7276 47.4933C19.4553 48.3969 18.265 49.2809 18.1567 50.1452C17.9735 51.606 19.8028 52.1812 22.2939 52.9645C22.6327 53.071 22.9838 53.1814 23.3438 53.2984C25.7945 54.0951 29.0913 55.0271 30.8052 55.0641C32.3598 55.0977 34.0949 54.4568 36.0106 53.1414C49.0846 44.316 55.8335 39.8552 56.2572 39.7591C56.5562 39.6912 56.9704 39.6059 57.2511 39.8554C57.5317 40.1048 57.5041 40.5773 57.4744 40.704C57.2932 41.4766 50.1125 48.1524 46.3965 51.6071C45.238 52.6841 44.4163 53.4481 44.2483 53.6225C43.872 54.0134 43.4885 54.3831 43.1199 54.7384C40.8431 56.9333 39.1356 58.5793 43.2145 61.2672C45.1746 62.5588 46.7431 63.627 48.3078 64.6926C50.0167 65.8563 51.7212 67.0171 53.9265 68.4627C54.4883 68.831 55.0249 69.2135 55.5476 69.5861C57.5363 71.0039 59.323 72.2777 61.5303 72.0745C62.813 71.9565 64.1378 70.7504 64.8107 67.1534C66.4009 58.6526 69.5265 40.2338 70.2489 32.6439C70.3122 31.9789 70.2325 31.1279 70.1686 30.7543C70.1047 30.3807 69.9711 29.8484 69.4855 29.4544C68.9104 28.9877 68.0225 28.8893 67.6255 28.8963C65.8201 28.9281 63.0502 29.8913 49.7201 35.4357Z" fill="white"/>
</g>
<defs>
<clipPath id="clip0_2012_382">
<rect width="96" height="96" fill="white"/>
</clipPath>
</defs>
</svg>
