<svg width="96" height="96" viewBox="0 0 96 96" fill="none" xmlns="http://www.w3.org/2000/svg">
<path d="M0 96L6.74798 71.348C2.58399 64.132 0.395999 55.952 0.399999 47.564C0.411999 21.34 21.752 0 47.9719 0C60.6959 0.004 72.6398 4.96 81.6238 13.952C90.6038 22.944 95.5478 34.896 95.5438 47.608C95.5318 73.836 74.1918 95.176 47.9719 95.176C40.0119 95.172 32.1679 93.176 25.2199 89.384L0 96ZM26.3879 80.772C33.0919 84.752 39.4919 87.136 47.9559 87.14C69.7478 87.14 87.4998 69.404 87.5118 47.6C87.5198 25.752 69.8518 8.04 47.9879 8.032C26.1799 8.032 8.43998 25.768 8.43198 47.568C8.42798 56.468 11.036 63.132 15.416 70.104L11.42 84.696L26.3879 80.772ZM71.9358 58.916C71.6398 58.42 70.8478 58.124 69.6558 57.528C68.4679 56.932 62.6239 54.056 61.5319 53.66C60.4439 53.264 59.6519 53.064 58.8559 54.256C58.0639 55.444 55.7839 58.124 55.0919 58.916C54.3999 59.708 53.7039 59.808 52.5159 59.212C51.3279 58.616 47.4959 57.364 42.9559 53.312C39.4239 50.16 37.0359 46.268 36.3439 45.076C35.6519 43.888 36.2719 43.244 36.8639 42.652C37.3999 42.12 38.0519 41.264 38.6479 40.568C39.2519 39.88 39.4479 39.384 39.8479 38.588C40.2439 37.796 40.0479 37.1 39.7479 36.504C39.4479 35.912 37.0719 30.06 36.0839 27.68C35.1159 25.364 34.1359 25.676 33.4079 25.64L31.1279 25.6C30.3359 25.6 29.0479 25.896 27.9599 27.088C26.8719 28.28 23.7999 31.152 23.7999 37.004C23.7999 42.856 28.0599 48.508 28.6519 49.3C29.2479 50.092 37.0319 62.1 48.9559 67.248C51.7919 68.472 54.0079 69.204 55.7319 69.752C58.5799 70.656 61.1719 70.528 63.2199 70.224C65.5039 69.884 70.2518 67.348 71.2438 64.572C72.2358 61.792 72.2358 59.412 71.9358 58.916Z" fill="white"/>
</svg>
